<svg xmlns="http://www.w3.org/2000/svg" viewBox="0 0 792 612"><defs><style>.cls-1{fill:#fff;}.cls-2{stroke:#be1e2d;stroke-width:0.31px;}.cls-2,.cls-3,.cls-4,.cls-5{stroke-miterlimit:10;}.cls-3,.cls-4,.cls-5{stroke:#000;}.cls-3{stroke-width:1.23px;}.cls-4{stroke-width:8.63px;}.cls-5{stroke-width:3.7px;}</style></defs><g id="Layer_2" data-name="Layer 2"><rect class="cls-1" width="792" height="612"/></g><g id="Layer_1" data-name="Layer 1"><ellipse cx="509.8" cy="212.7" rx="16.61" ry="16.82"/><ellipse cx="579.73" cy="354.09" rx="16.61" ry="16.82"/><path class="cls-2" d="M205.42,227.67"/><ellipse cx="205.42" cy="212.7" rx="16.61" ry="16.82"/><path class="cls-3" d="M230.07,353.38a12.66,12.66,0,0,1-4.21,9.48q-4.22,4-11.44,4c-4.53,0-8.2-1-11.06-2.95a25.25,25.25,0,0,1-7.22-7.86q-3-4.92-5.25-8.92l-38.42-60.23-26.61,26v33.79q0,10.26-4.59,15.22a15.4,15.4,0,0,1-11.82,5,16.19,16.19,0,0,1-13.91-8.24,19.83,19.83,0,0,1-1.86-7.25c-.21-2.76-.33-6.74-.33-11.94V217.88q0-10,4.32-15.06t11.78-5a15.38,15.38,0,0,1,11.87,5q4.55,5,4.54,15.12v57.33l38.5-40.91a14.29,14.29,0,0,1,20.68-.23h0a15,15,0,0,1-.28,21.14l-9.85,9.51,45.53,66.46a84,84,0,0,1,7.23,12.1A24,24,0,0,1,230.07,353.38Z"/><path d="M695.15,351a147.1,147.1,0,0,0-9.78-18.91,140.32,140.32,0,0,0-14.28-19.76,60.71,60.71,0,0,0-16.78-14.05q20.88-4.65,31.18-15.74t10.27-29.67a48.36,48.36,0,0,0-3-17.16,41.61,41.61,0,0,0-22.52-23.61A47.05,47.05,0,0,0,656,208.2a158.44,158.44,0,0,0-19-1H583.28q-10.68,0-15.45,4.86T563,227.84V313.7a16.67,16.67,0,0,0,16.51,16.82h0a16.67,16.67,0,0,0,16.51-16.82V302.24h11.56a38.65,38.65,0,0,1,14.56,2.38q5.77,2.37,11.4,8.83t12.72,18.8l13.23,22.42c3.11,5.3,5.57,9.29,7.39,12a25,25,0,0,0,6.5,6.73,15.78,15.78,0,0,0,9.34,2.68,17.51,17.51,0,0,0,8.22-1.88,14.46,14.46,0,0,0,5.61-5.09,12,12,0,0,0,2.06-6.52Q698.65,359.44,695.15,351Zm-49.51-75a81.83,81.83,0,0,1-20,2.1H596.06V232.49h30.46q17,0,22.78,2.48a21.06,21.06,0,0,1,9.56,7.88A21.69,21.69,0,0,1,662.31,255q0,8.82-4.28,13.87T645.64,276Z"/><ellipse cx="579.73" cy="313.46" rx="16.34" ry="16.82"/><ellipse cx="275.02" cy="309.22" rx="16.98" ry="18.91"/><path class="cls-4" d="M423.09,367.85c0-29.71,9.72-45.39,34-48.48h2v-25c0-29.3,21.47-55.5,53.86-55.5A47.9,47.9,0,0,1,526.31,241a13.22,13.22,0,0,1,8.33,17.74h0a12.78,12.78,0,0,1-15.25,7.64,24.64,24.64,0,0,0-7-1c-14.58,0-29,13.62-29,31.77v21.66H520a12.57,12.57,0,0,1,12.45,12.69h0A12.57,12.57,0,0,1,520,344.13H467.23c-13,0-19.64,7-19.84,21.24,0,17.33,6.07,25.38,19.84,25.38h24.5a12.42,12.42,0,0,1,10.86,6.48h0c4.66,8.46-1.34,18.89-10.86,18.89h-24.5C437.87,416.12,423.09,400,423.09,367.85Z"/><ellipse cx="274.64" cy="354.09" rx="16.61" ry="16.82"/><path class="cls-5" d="M379.23,243.35h0a15.08,15.08,0,0,0-14.93,15.21V314l-56-86.34-6.51-10c-1.75-2.83-3.45-5.53-5.08-8.14a38.89,38.89,0,0,0-4.82-6.35,18.39,18.39,0,0,0-5.47-3.92,17.84,17.84,0,0,0-7.51-1.44A18.51,18.51,0,0,0,268.5,201a17.81,17.81,0,0,0-6.9,8.2c-1.17,3-1.75,7.25-1.75,12.6v85.43c0,8.56,6.85,14.68,15.26,14.68h0a15,15,0,0,0,15.18-15.11V252.12l61,95.24q2.63,3.9,5.26,7.64a38.69,38.69,0,0,0,5.69,6.52,20.12,20.12,0,0,0,6.56,4.08,23,23,0,0,0,7.89,1.27q17.52,0,17.51-21.51v-86.8A15.08,15.08,0,0,0,379.23,243.35Z"/></g></svg>