<svg xmlns="http://www.w3.org/2000/svg" viewBox="0 0 792 612"><defs><style>.cls-1,.cls-2,.cls-3,.cls-4,.cls-5{fill:#fff;}.cls-2{stroke:#be1e2d;stroke-width:0.31px;}.cls-2,.cls-3,.cls-4,.cls-5{stroke-miterlimit:10;}.cls-3,.cls-4,.cls-5{stroke:#fff;}.cls-3{stroke-width:1.24px;}.cls-4{stroke-width:8.71px;}.cls-5{stroke-width:3.73px;}</style></defs><g id="bg2"><rect width="792" height="612"/></g><g id="Layer_4" data-name="Layer 4"><ellipse class="cls-1" cx="511.92" cy="212.72" rx="16.92" ry="16.82"/><ellipse class="cls-1" cx="583.15" cy="354.08" rx="16.92" ry="16.82"/><path class="cls-2" d="M201.87,227.69"/><ellipse class="cls-1" cx="201.87" cy="212.72" rx="16.92" ry="16.82"/><path class="cls-3" d="M227,353.37a12.57,12.57,0,0,1-4.29,9.48q-4.29,4-11.65,4-6.91,0-11.26-2.95a25.28,25.28,0,0,1-7.36-7.86q-3-4.92-5.35-8.92l-39.14-60.22-27.1,26v33.78q0,10.26-4.68,15.22a15.81,15.81,0,0,1-12,5A16.19,16.19,0,0,1,96,364.64a15.71,15.71,0,0,1-6-6,19.83,19.83,0,0,1-1.89-7.25c-.22-2.75-.34-6.74-.34-11.93V217.9q0-10.05,4.41-15.06c2.94-3.35,6.93-5,12-5a15.82,15.82,0,0,1,12.1,4.95q4.62,5,4.62,15.12v57.31L160,234.31a14.74,14.74,0,0,1,21.07-.22h0a14.75,14.75,0,0,1-.28,21.13l-10,9.51,46.38,66.45a82.58,82.58,0,0,1,7.36,12.1A23.6,23.6,0,0,1,227,353.37Z"/><path class="cls-1" d="M700.73,351a146.82,146.82,0,0,0-10-18.91,141.22,141.22,0,0,0-14.54-19.75,61.38,61.38,0,0,0-17.1-14q21.27-4.67,31.76-15.74t10.47-29.67a47.23,47.23,0,0,0-3.12-17.15,41.22,41.22,0,0,0-9.11-14.21,42.08,42.08,0,0,0-13.82-9.4,48.67,48.67,0,0,0-14.48-3.9,164.6,164.6,0,0,0-19.37-1H586.77q-10.87,0-15.74,4.86t-4.87,15.74V313.7A16.81,16.81,0,0,0,583,330.52h0a16.82,16.82,0,0,0,16.82-16.82V302.24h11.77a40.11,40.11,0,0,1,14.84,2.38q5.88,2.37,11.6,8.83t13,18.8l13.46,22.41c3.18,5.3,5.68,9.29,7.53,12a25.59,25.59,0,0,0,6.63,6.73,16.28,16.28,0,0,0,9.51,2.67,18.15,18.15,0,0,0,8.38-1.87,14.56,14.56,0,0,0,5.71-5.1,11.75,11.75,0,0,0,2.1-6.51Q704.29,359.43,700.73,351ZM650.29,276a84.85,84.85,0,0,1-20.39,2.09H599.79V232.51h31q17.33,0,23.21,2.48a21,21,0,0,1,13.25,20q0,8.82-4.36,13.86T650.29,276Z"/><ellipse class="cls-1" cx="583.15" cy="313.46" rx="16.64" ry="16.82"/><path class="cls-4" d="M423.6,367.84c0-29.7,9.9-45.38,34.65-48.47h2.06v-25c0-29.29,21.86-55.48,54.86-55.48A49.26,49.26,0,0,1,528.74,241a13.15,13.15,0,0,1,8.48,17.73h0a13.07,13.07,0,0,1-15.53,7.64,25.5,25.5,0,0,0-7.13-1c-14.85,0-29.5,13.61-29.5,31.76v21.66h37.23A12.68,12.68,0,0,1,535,331.43h0a12.68,12.68,0,0,1-12.68,12.69H468.56c-13.2,0-20,7-20.21,21.24,0,17.33,6.18,25.37,20.21,25.37h24.95a12.7,12.7,0,0,1,11.07,6.48h0a12.69,12.69,0,0,1-11.07,18.89H468.56C438.65,416.1,423.6,400,423.6,367.84Z"/><ellipse class="cls-1" cx="272.76" cy="309.22" rx="17.3" ry="18.9"/><ellipse class="cls-1" cx="272.38" cy="354.08" rx="16.92" ry="16.82"/><path class="cls-5" d="M378.91,243.36h0a15.21,15.21,0,0,0-15.21,15.21V314l-57.05-86.32-6.62-10c-1.78-2.82-3.52-5.52-5.18-8.14a39.22,39.22,0,0,0-4.91-6.34,17.26,17.26,0,0,0-13.22-5.35A19.12,19.12,0,0,0,266.12,201a17.9,17.9,0,0,0-7,8.2c-1.2,3-1.78,7.25-1.78,12.6v85.41c0,8.56,7,14.68,15.54,14.68h0a15.14,15.14,0,0,0,15.46-15.11V252.13l62.1,95.22q2.67,3.9,5.35,7.64a38.74,38.74,0,0,0,5.8,6.52,20.44,20.44,0,0,0,6.69,4.08,23.82,23.82,0,0,0,8,1.27q17.85,0,17.84-21.51V258.57A15.21,15.21,0,0,0,378.91,243.36Z"/></g></svg>